<svg id="Layer_1" data-name="Layer 1" xmlns="http://www.w3.org/2000/svg" viewBox="0 0 475.38 477"><defs><style>.cls-1{fill:#1b1464;}.cls-2{fill:#fbaa1b;}</style></defs><title>know-share-logo-only</title><path class="cls-1" d="M574.68,302.76c-9,24.79-37.19,24.79-47.48.75-.57-17.54-.87-93.75-1.12-138.19,9.24-27.2,37.45-27.2,47.62-.62Z" transform="translate(-455 -144)"/><path class="cls-1" d="M574.68,602.32c-9,24.78-37.19,24.78-47.48.75-.57-17.55-.87-93.75-1.12-138.2,9.24-27.2,37.45-27.2,47.62-.62Z" transform="translate(-455 -144)"/><path class="cls-2" d="M622,319.38c39.07-19.52,77.88-39,116.78-58.25,3.37-1.67,3.34-3.77,2.92-6.7-6.3-43.67,14.89-83.16,54.57-101.83,52.07-24.5,116.31,5.65,130.83,61.42,14.8,56.83-21.73,112.06-79.84,119.57-29.91,3.86-56.09-5.52-78-26.33-1.75-1.66-3.31-3.51-5.16-5.49-1.68.76-3.16,1.38-4.6,2.1q-55.77,27.87-111.57,55.66c-3.65,1.81-4.3,3.76-4.11,7.67.47,10,.25,20,0,29.93-.07,2.91-.43,5,3,6.72,38.9,19.26,77.71,38.72,115.31,57.51,10.75-7.52,20.26-15.71,31.08-21.47,51.9-27.65,119.09,2.36,133.89,59.3s-21.26,111.49-79.5,120c-53.07,7.71-104.63-34.85-106.83-88.4-.3-7.19.49-14.44,1.08-21.64.24-2.85.15-4.71-2.88-6.22-38.89-19.3-77.71-38.75-117-58.4-22.64,24.25-50.56,35.79-83.84,31.8-24.8-3-45.49-14.56-61.38-33.9-31.52-38.34-28.14-94.44,7-128.58C519.26,279.21,581.2,274.94,622,319.38Zm261.16-80.07c.05-26-21.42-47.56-47.45-47.72s-47.58,21.24-47.85,47.31,21.56,48,47.72,48A48,48,0,0,0,883.14,239.31Zm-333.34,95c-26,.2-47.49,21.8-47.41,47.76A48,48,0,0,0,550,429.62c26.16,0,48-22,47.69-48S575.72,334.12,549.8,334.31Zm285.69,238c26,0,47.54-21.51,47.65-47.52S861.81,477.25,835.76,477s-48,21.64-47.92,47.79S809.51,572.34,835.49,572.34Z" transform="translate(-455 -144)"/></svg>