<svg id="Layer_1" data-name="Layer 1" xmlns="http://www.w3.org/2000/svg" viewBox="0 0 612.66 407.6"><defs><style>.cls-1{font-size:107.11px;font-family:Rubik-Bold, Rubik;font-weight:700;}.cls-1,.cls-6{fill:#fbaa1b;}.cls-2{letter-spacing:-0.02em;}.cls-3{letter-spacing:0em;}.cls-4,.cls-5{fill:#1b1464;}.cls-5{letter-spacing:0em;}.cls-7{font-size:21.44px;fill:#999;font-family:Rubik-Medium, Rubik;letter-spacing:-0.02em;}.cls-8{letter-spacing:-0.03em;}.cls-9{fill:#4b4b4b;}</style></defs><title>know-share-logo-v2</title><text class="cls-1" transform="translate(0 330.01)">Kn<tspan class="cls-2" x="140.74" y="0">o</tspan><tspan class="cls-3" x="204.79" y="0">w</tspan><tspan class="cls-4" x="294.87" y="0">Sha</tspan><tspan class="cls-5" x="499.77" y="0">r</tspan><tspan class="cls-4" x="548.72" y="0">e</tspan></text><path class="cls-4" d="M626.14,231.75c-4.14,11.42-17.14,11.42-21.88.35-.26-8.09-.4-43.19-.51-63.67,4.25-12.53,17.25-12.53,21.93-.28Z" transform="translate(-370.69 -158.61)"/><path class="cls-4" d="M626.14,369.75c-4.14,11.42-17.14,11.42-21.88.35-.26-8.09-.4-43.19-.51-63.67,4.25-12.53,17.25-12.53,21.93-.28Z" transform="translate(-370.69 -158.61)"/><path class="cls-6" d="M647.93,239.41c18-9,35.87-18,53.8-26.84,1.55-.77,1.53-1.74,1.34-3.09-2.9-20.11,6.86-38.3,25.14-46.91,24-11.28,53.58,2.61,60.27,28.3,6.82,26.18-10,51.62-36.78,55.08-13.78,1.78-25.84-2.54-36-12.13-.8-.76-1.52-1.61-2.37-2.53-.77.36-1.46.64-2.12,1-17.13,8.56-34.24,17.15-51.4,25.64-1.68.84-2,1.74-1.89,3.54.22,4.58.11,9.19,0,13.79,0,1.34-.2,2.32,1.36,3.09,17.92,8.88,35.8,17.84,53.12,26.49,4.95-3.46,9.33-7.23,14.31-9.89,23.91-12.73,54.87,1.09,61.69,27.32s-9.8,51.36-36.63,55.26c-24.45,3.56-48.2-16.05-49.21-40.72a79.36,79.36,0,0,1,.5-10c.1-1.31.06-2.17-1.33-2.86C683.87,315.06,666,306.1,647.87,297c-10.43,11.17-23.29,16.49-38.62,14.65A42.16,42.16,0,0,1,581,296.08a43.9,43.9,0,0,1,3.23-59.24C600.6,220.9,629.14,218.93,647.93,239.41Zm120.31-36.89a22,22,0,1,0-21.92,21.92A22.12,22.12,0,0,0,768.24,202.52ZM614.67,246.29a22,22,0,1,0,22.07,21.77A22.13,22.13,0,0,0,614.67,246.29ZM746.29,355.94a22,22,0,1,0-22-21.89A22.13,22.13,0,0,0,746.29,355.94Z" transform="translate(-370.69 -158.61)"/><text class="cls-7" transform="translate(181.74 373.77)">b<tspan class="cls-8" x="12.72" y="0">y</tspan></text><path class="cls-6" d="M617.06,507.62l-21.75,12.5a4.61,4.61,0,0,0-2.31,4v25a4.61,4.61,0,0,0,2.31,4l21.75,12.48a4.59,4.59,0,0,0,4.59,0l21.75-12.51a4.61,4.61,0,0,0,2.31-4v-25a4.61,4.61,0,0,0-2.31-4l-21.72-12.47A4.6,4.6,0,0,0,617.06,507.62Zm24.52,44.32-20,11.51a4.44,4.44,0,0,1-4.43,0l-20-11.51a4.44,4.44,0,0,1-2.23-3.85v-23a4.42,4.42,0,0,1,2.23-3.84l20-11.51a4.44,4.44,0,0,1,4.43,0l20,11.51a4.42,4.42,0,0,1,2.23,3.84v23A4.45,4.45,0,0,1,641.58,551.94Z" transform="translate(-370.69 -158.61)"/><path class="cls-9" d="M620.53,534.85a4.59,4.59,0,0,0-2.11,3.64v1.84a2,2,0,0,0,1,1.87,2.1,2.1,0,0,0,2.1-.12l16.36-9.4a2,2,0,0,0,1,.3,2,2,0,1,0-2-2V531l-16.36,9.4a.67.67,0,0,1-.21.09.81.81,0,0,1,0-.22V538.5a2.67,2.67,0,0,1,1.18-2l16.24-9.36a2,2,0,0,0,1.14-1.75,2,2,0,0,0-1.14-1.75l-16.21-9.34a4.62,4.62,0,0,0-4.22,0L601,523.64a4.59,4.59,0,0,0-2.11,3.64v7.44a4.59,4.59,0,0,0,2.11,3.64l16.24,9.34a4.62,4.62,0,0,0,4.22,0l16.21-9.34.2-.09a.81.81,0,0,1,0,.22v7.45a2.71,2.71,0,0,1-1.17,2l-16.18,9.36a2.76,2.76,0,0,1-2.35,0L602,547.94a2.71,2.71,0,0,1-1.17-2V544.1a.81.81,0,0,1,0-.22l.2.09,15.44,8.88a2,2,0,1,0,.8-1.71L602,542.35a1.93,1.93,0,0,0-3.05,1.75v1.84a4.59,4.59,0,0,0,2.11,3.64l16.24,9.36a4.3,4.3,0,0,0,2.11.51,4.2,4.2,0,0,0,2.11-.51l16.21-9.36a4.59,4.59,0,0,0,2.13-3.64v-7.45a1.94,1.94,0,0,0-1.74-2.11,2,2,0,0,0-1.31.36l-16.23,9.33a2.74,2.74,0,0,1-2.34,0L602,536.74a2.71,2.71,0,0,1-1.17-2v-7.47a2.71,2.71,0,0,1,1.17-2l16.24-9.33a2.74,2.74,0,0,1,2.34,0l16.23,9.33a.49.49,0,0,1,.18.14.83.83,0,0,1-.18.13Z" transform="translate(-370.69 -158.61)"/><path class="cls-9" d="M668.88,532.17a.93.93,0,0,1-.62.23h-2.15a1.38,1.38,0,0,1-.77-.19,1.62,1.62,0,0,1-.49-.55,3.76,3.76,0,0,0-1.51-1.37,5.78,5.78,0,0,0-2.66-.52,5.47,5.47,0,0,0-2.8.67,2,2,0,0,0-1.14,1.8,1.83,1.83,0,0,0,.54,1.42,4.1,4.1,0,0,0,1.68.84c.75.22,2,.52,3.72.88a12.31,12.31,0,0,1,5.37,2.23,5,5,0,0,1,1.63,3.94,5.35,5.35,0,0,1-1,3.28,7.13,7.13,0,0,1-3.09,2.27,13.49,13.49,0,0,1-9,.09,8,8,0,0,1-3.23-2.09A4.89,4.89,0,0,1,652,542a.7.7,0,0,1,.21-.6.93.93,0,0,1,.62-.23H655a1.52,1.52,0,0,1,.78.18,1.41,1.41,0,0,1,.48.55,4,4,0,0,0,1.52,1.6,6.22,6.22,0,0,0,3.09.6,7.86,7.86,0,0,0,3.38-.64,2.06,2.06,0,0,0,1.35-1.92,1.45,1.45,0,0,0-.52-1.18,4.5,4.5,0,0,0-1.47-.73c-.64-.19-1.6-.44-2.89-.75-.51-.1-1.18-.25-2-.45a10.41,10.41,0,0,1-4.66-2.17,6,6,0,0,1-.4-7.26,7,7,0,0,1,2.91-2.24,10.08,10.08,0,0,1,4.09-.83,10.55,10.55,0,0,1,4.47.87A7.17,7.17,0,0,1,668,529a4.85,4.85,0,0,1,1.08,2.56.71.71,0,0,1-.21.6" transform="translate(-370.69 -158.61)"/><path class="cls-9" d="M676.93,546.8a.76.76,0,0,1-.25.57.79.79,0,0,1-.58.25h-2.34a.79.79,0,0,1-.58-.25.76.76,0,0,1-.25-.57v-20a.79.79,0,0,1,.25-.58.78.78,0,0,1,.58-.24h2.34a.78.78,0,0,1,.58.24.79.79,0,0,1,.25.58v9.61l5.13-4.12a5.45,5.45,0,0,1,.62-.35,1.19,1.19,0,0,1,.61-.14h3.14a.73.73,0,0,1,.52.22.68.68,0,0,1,.21.52.79.79,0,0,1-.33.61l-7.15,5.68,7.84,7.48a.82.82,0,0,1,.31.58.73.73,0,0,1-.73.73h-3a1.91,1.91,0,0,1-1.26-.52L677,541.55Z" transform="translate(-370.69 -158.61)"/><path class="cls-9" d="M693.68,535.84a3.31,3.31,0,0,0-1.22,2.47v2.75a3.31,3.31,0,0,0,1.22,2.47,4.66,4.66,0,0,0,5,0,3.27,3.27,0,0,0,1.21-2.47c0-.41.06-.86.06-1.37a9.66,9.66,0,0,0-.06-1.38,3.27,3.27,0,0,0-1.21-2.47,4.66,4.66,0,0,0-5,0M704,539.72a12.79,12.79,0,0,1-.06,1.52,7.21,7.21,0,0,1-1.14,3.39,6.8,6.8,0,0,1-2.69,2.41,9,9,0,0,1-7.78,0,7,7,0,0,1-2.69-2.41,7.31,7.31,0,0,1-1.13-3.39v-3.08a7.42,7.42,0,0,1,1.13-3.42,7.1,7.1,0,0,1,2.69-2.41,9,9,0,0,1,7.78,0,6.94,6.94,0,0,1,2.69,2.41,7.32,7.32,0,0,1,1.14,3.42q.06.74.06,1.56" transform="translate(-370.69 -158.61)"/><path class="cls-9" d="M712,535.84a3.31,3.31,0,0,0-1.22,2.47v2.75a3.31,3.31,0,0,0,1.22,2.47,4.66,4.66,0,0,0,5,0,3.27,3.27,0,0,0,1.21-2.47c0-.41.06-.86.06-1.37a9.66,9.66,0,0,0-.06-1.38,3.27,3.27,0,0,0-1.21-2.47,4.66,4.66,0,0,0-5,0m10.28,3.88a12.79,12.79,0,0,1-.06,1.52,7.21,7.21,0,0,1-1.14,3.39,6.8,6.8,0,0,1-2.69,2.41,9,9,0,0,1-7.78,0,7,7,0,0,1-2.69-2.41,7.31,7.31,0,0,1-1.13-3.39v-3.08a7.42,7.42,0,0,1,1.13-3.42,7.1,7.1,0,0,1,2.69-2.41,9,9,0,0,1,7.78,0,6.94,6.94,0,0,1,2.69,2.41,7.32,7.32,0,0,1,1.14,3.42q.06.74.06,1.56" transform="translate(-370.69 -158.61)"/><path class="cls-9" d="M729.49,547.37a.79.79,0,0,1-.58.25h-2.34a.79.79,0,0,1-.58-.25.76.76,0,0,1-.25-.57v-20a.79.79,0,0,1,.25-.58.78.78,0,0,1,.58-.24h2.34a.78.78,0,0,1,.58.24.79.79,0,0,1,.25.58v20a.76.76,0,0,1-.25.57" transform="translate(-370.69 -158.61)"/><path class="cls-9" d="M738.27,543.13a3.82,3.82,0,0,0,6.5-2.2v-.08c0-.41.06-.8.06-1.16a7.78,7.78,0,0,0-.06-1.16,3.71,3.71,0,0,0-1.18-2.49,4,4,0,0,0-5.12,0,4.16,4.16,0,0,0-1.2,2.81v.86a5,5,0,0,0,1,3.44Zm6.5-16.35a.79.79,0,0,1,.25-.58.78.78,0,0,1,.58-.24h2.34a.78.78,0,0,1,.58.24.79.79,0,0,1,.25.58v20a.76.76,0,0,1-.25.57.79.79,0,0,1-.58.25H745.6a.79.79,0,0,1-.58-.25.76.76,0,0,1-.25-.57v-.71a5.5,5.5,0,0,1-1.78,1.28,6.55,6.55,0,0,1-2.86.55,6.35,6.35,0,0,1-3.52-1,6.82,6.82,0,0,1-2.38-2.62,8.24,8.24,0,0,1-1-3.56v-2.13a8.24,8.24,0,0,1,1-3.56,7.13,7.13,0,0,1,2.38-2.62,6.35,6.35,0,0,1,3.52-1A6.42,6.42,0,0,1,743,532a5.9,5.9,0,0,1,1.81,1.28Z" transform="translate(-370.69 -158.61)"/><path class="cls-9" d="M756.76,547.37a.79.79,0,0,1-.58.25h-2.34a.86.86,0,0,1-.83-.82V532.58a.85.85,0,0,1,.83-.83h2.34a.85.85,0,0,1,.83.83V546.8a.77.77,0,0,1-.25.57m.15-21.17a.79.79,0,0,1,.25.58v2.38a.79.79,0,0,1-.25.58.78.78,0,0,1-.58.24h-2.65a.82.82,0,0,1-.59-.24.79.79,0,0,1-.25-.58v-2.38a.85.85,0,0,1,.84-.84h2.64a.78.78,0,0,1,.58.24" transform="translate(-370.69 -158.61)"/><path class="cls-9" d="M765.78,535.84a3.25,3.25,0,0,0-1.21,2.47v2.75a3.25,3.25,0,0,0,1.21,2.47,4.66,4.66,0,0,0,5,0,3.31,3.31,0,0,0,1.22-2.47c0-.41.06-.86.06-1.37a9.66,9.66,0,0,0-.06-1.38,3.31,3.31,0,0,0-1.22-2.47,4.66,4.66,0,0,0-5,0m10.28,3.88a12.79,12.79,0,0,1-.06,1.52,7.21,7.21,0,0,1-1.14,3.39,6.8,6.8,0,0,1-2.69,2.41,9,9,0,0,1-7.77,0,6.81,6.81,0,0,1-2.72-2.41,7.21,7.21,0,0,1-1.14-3.39v-3.08a7.32,7.32,0,0,1,1.14-3.42,6.94,6.94,0,0,1,2.69-2.41,9,9,0,0,1,7.77,0,6.94,6.94,0,0,1,2.69,2.41,7.32,7.32,0,0,1,1.14,3.42q.06.74.06,1.56" transform="translate(-370.69 -158.61)"/></svg>